<svg width="412" height="351" viewBox="0 0 412 351" fill="none" xmlns="http://www.w3.org/2000/svg">
<path d="M175.07 123.88L175.52 110.74L167.46 108.1C167.113 103.647 166.391 99.2312 165.3 94.9L172.14 89.9L167.5 77.56L159.04 78.24C157.034 74.2642 154.692 70.467 152.04 66.89L156.42 59.58L147.42 49.97L139.86 53.84C136.46 50.9341 132.828 48.312 129 46L130.22 37.6L118.22 32.16L112.72 38.6C108.477 37.2427 104.129 36.2393 99.7198 35.6L97.7198 27.37L84.5398 26.92L81.9398 34.99C77.4911 35.3397 73.0793 36.0589 68.7498 37.14L63.6698 30.34L51.3298 34.95L52.0098 43.41C48.0361 45.4463 44.2396 47.8112 40.6598 50.48L33.2998 46L23.6498 55L27.5198 62.6C24.6132 65.9825 22.0035 69.6093 19.7198 73.44L11.3298 72.18L5.8498 84.18L12.3298 89.67C10.9629 93.9104 9.95928 98.2594 9.32981 102.67L0.999805 104.76L0.549805 117.9L8.64981 120.54C8.98485 124.99 9.7042 129.404 10.7998 133.73L3.9598 138.73L8.60981 151.08L17.0698 150.4C19.0705 154.379 21.4126 158.176 24.0698 161.75L19.6798 169.06L28.6798 178.67L36.2398 174.8C39.6304 177.705 43.2562 180.324 47.0798 182.63L45.8198 191.02L57.8198 196.47L63.3498 190.03C67.5927 191.4 71.9405 192.42 76.3498 193.08L78.3498 201.31L91.5298 201.76L94.1298 193.69C98.5813 193.336 102.996 192.617 107.33 191.54L112.33 198.34L124.67 193.73L124.03 185.27C127.996 183.221 131.792 180.856 135.38 178.2L142.65 182.58L152.3 173.58L148.43 165.98C151.337 162.598 153.947 158.971 156.23 155.14L164.62 156.4L170.1 144.4L163.62 138.9C165.01 134.663 166.03 130.313 166.67 125.9L175.07 123.88ZM86.2798 166.45C75.9677 166.102 65.9907 162.703 57.6106 156.683C49.2305 150.664 42.824 142.294 39.2014 132.633C35.5788 122.972 34.9029 112.453 37.2592 102.408C39.6155 92.3628 44.8981 83.242 52.4388 76.1994C59.9795 69.1568 69.4395 64.5089 79.6222 62.8436C89.8049 61.1783 100.253 62.5704 109.644 66.8438C119.035 71.1171 126.948 78.0799 132.382 86.8511C137.816 95.6224 140.526 105.808 140.17 116.12C139.695 129.94 133.752 143.005 123.646 152.443C113.54 161.881 100.1 166.919 86.2798 166.45V166.45Z" fill="#EBEBEB"/>
<path d="M400 80.42L403.31 77.33L402 74.72C402.999 73.5505 403.899 72.2994 404.69 70.98L407.59 71.41L409.46 67.27L407.24 65.38C407.718 63.9162 408.069 62.414 408.29 60.89L411.14 60.18L411.28 55.64L408.5 54.74C408.378 53.2024 408.13 51.6773 407.76 50.18L410.11 48.43L408.51 44.18L405.6 44.41C404.898 43.0393 404.085 41.7282 403.17 40.49L404.68 37.99L401.57 34.67L398.97 36C397.799 35.003 396.548 34.1033 395.23 33.31L395.65 30.41L391.52 28.52L389.62 30.75C388.153 30.2933 386.652 29.9589 385.13 29.75L384.42 26.91L379.88 26.74L378.97 29.54C377.438 29.6571 375.919 29.9046 374.43 30.28L372.69 27.93L368.43 29.52L368.67 32.44C367.295 33.1349 365.984 33.9479 364.75 34.87L362.23 33.36L358.91 36.45L360.2 39C359.193 40.1661 358.29 41.4175 357.5 42.74L354.61 42.31L352.73 46.45L354.96 48.35C354.498 49.8116 354.163 51.3105 353.96 52.83L351.1 53.54L350.96 58.08L353.75 58.98C353.864 60.5179 354.108 62.0434 354.48 63.54L352.12 65.28L353.72 69.53L356.64 69.31C357.342 70.6807 358.154 71.9917 359.07 73.23L357.56 75.73L360.67 79.05L363.27 77.72C364.439 78.7202 365.69 79.6201 367.01 80.41L366.58 83.3L370.72 85.19L372.62 82.97C374.088 83.4219 375.589 83.7563 377.11 83.97L377.82 86.81L382.36 86.98L383.27 84.18C384.802 84.0636 386.321 83.816 387.81 83.44L389.55 85.79L393.81 84.2L393.58 81.28C394.951 80.5841 396.259 79.7711 397.49 78.85L400 80.42ZM376.38 61.29C375.507 60.3543 374.931 59.1806 374.725 57.9174C374.518 56.6541 374.692 55.3582 375.222 54.1934C375.753 53.0287 376.617 52.0475 377.705 51.374C378.794 50.7004 380.057 50.3648 381.337 50.4096C382.616 50.4544 383.853 50.8775 384.891 51.6255C385.93 52.3735 386.723 53.4128 387.171 54.6118C387.619 55.8108 387.701 57.1157 387.407 58.3614C387.113 59.6071 386.457 60.7376 385.52 61.61C384.898 62.1961 384.167 62.653 383.367 62.9544C382.568 63.2558 381.717 63.3957 380.863 63.3659C380.009 63.3362 379.17 63.1374 378.394 62.781C377.617 62.4247 376.919 61.9179 376.34 61.29H376.38Z" fill="#EBEBEB"/>
<path d="M279 215.34L268.66 208.19C267.646 204.467 266.252 200.858 264.5 197.42L267.15 187.02L252.15 170.96L241.59 172.89C238.277 170.905 234.769 169.267 231.12 168V168L224.7 157.19L202.7 156.44L195.56 166.78C191.841 167.793 188.236 169.183 184.8 170.93L174.4 168.28L158.34 183.28L160.27 193.82C158.287 197.14 156.652 200.655 155.39 204.31L144.58 210.73L143.83 232.73L154.18 239.87C155.177 243.613 156.568 247.24 158.33 250.69V250.69L155.65 261L170.65 277.06L181.14 275.14C184.478 277.127 188.009 278.769 191.68 280.04V280.04L198.09 290.83L220.09 291.59L227.22 281.25C230.972 280.237 234.611 278.843 238.08 277.09L248.42 279.73L264.49 264.73L262.56 254.19C264.549 250.87 266.185 247.351 267.44 243.69V243.69L278.25 237.27L279 215.34ZM210.55 248.73C205.666 248.563 200.941 246.952 196.973 244.1C193.005 241.248 189.971 237.283 188.256 232.707C186.541 228.131 186.221 223.149 187.337 218.392C188.453 213.634 190.955 209.314 194.526 205.978C198.097 202.642 202.576 200.44 207.399 199.649C212.221 198.859 217.17 199.517 221.619 201.539C226.068 203.561 229.817 206.857 232.393 211.01C234.969 215.163 236.255 219.986 236.09 224.87C235.861 231.42 233.041 237.612 228.251 242.085C223.461 246.559 217.091 248.949 210.54 248.73H210.55Z" fill="#EBEBEB"/>
<path d="M302.549 153H302.479L285.159 152.41C284.809 152.404 284.465 152.309 284.161 152.134C283.857 151.959 283.602 151.71 283.419 151.41L278.749 143.56C276.232 142.639 273.797 141.509 271.469 140.18L263.999 141.47C263.651 141.534 263.293 141.508 262.957 141.397C262.622 141.285 262.32 141.09 262.079 140.83L250.249 128.17C250.001 127.908 249.825 127.586 249.737 127.236C249.649 126.885 249.654 126.518 249.749 126.17L251.639 118.76C250.468 116.359 249.511 113.859 248.779 111.29L241.249 106.09C240.957 105.889 240.721 105.618 240.562 105.302C240.403 104.985 240.326 104.634 240.339 104.28L240.929 86.96C240.941 86.6103 241.038 86.2688 241.213 85.9655C241.387 85.6621 241.633 85.4061 241.929 85.22L249.799 80.55C250.707 78.0387 251.835 75.6126 253.169 73.3L251.789 65.77C251.725 65.4204 251.75 65.0602 251.862 64.7228C251.973 64.3854 252.169 64.0817 252.429 63.84L265.089 52.02C265.351 51.7708 265.673 51.593 266.023 51.5037C266.373 51.4144 266.74 51.4166 267.089 51.51L274.529 53.41C276.924 52.2384 279.417 51.2781 281.979 50.54L287.179 43.01C287.373 42.7109 287.642 42.4688 287.961 42.3088C288.279 42.1488 288.634 42.0767 288.989 42.1L306.299 42.7C306.651 42.7074 306.996 42.8028 307.301 42.9775C307.607 43.1522 307.864 43.4005 308.049 43.7L312.719 51.56C315.219 52.4775 317.634 53.6083 319.939 54.94L327.499 53.55C327.847 53.4853 328.206 53.5101 328.542 53.6221C328.878 53.734 329.18 53.9294 329.419 54.19L341.249 66.85C341.496 67.1132 341.671 67.4351 341.759 67.7851C341.846 68.1351 341.843 68.5016 341.749 68.85L339.849 76.28C341.021 78.6763 341.984 81.1688 342.729 83.73L350.249 88.93C350.541 89.1304 350.778 89.4015 350.937 89.718C351.096 90.0344 351.173 90.386 351.159 90.74L350.569 108.05C350.558 108.401 350.46 108.744 350.286 109.049C350.112 109.354 349.866 109.612 349.569 109.8L341.699 114.47C340.786 116.975 339.658 119.398 338.329 121.71L339.709 129.25C339.774 129.598 339.749 129.957 339.637 130.293C339.525 130.628 339.33 130.93 339.069 131.17L326.329 143C326.067 143.248 325.745 143.425 325.395 143.512C325.045 143.6 324.678 143.596 324.329 143.5L316.929 141.61C314.518 142.776 312.013 143.736 309.439 144.48L304.289 152C304.104 152.297 303.848 152.543 303.545 152.718C303.241 152.892 302.899 152.989 302.549 153V153ZM286.459 148.23L301.459 148.74L306.459 141.55C306.736 141.13 307.161 140.83 307.649 140.71C310.463 139.94 313.194 138.892 315.799 137.58V137.58C316.254 137.361 316.77 137.308 317.259 137.43L324.259 139.22L335.259 128.97L333.999 121.74C333.902 121.235 333.995 120.711 334.259 120.27C335.745 117.794 336.968 115.17 337.909 112.44C338.068 111.945 338.403 111.525 338.849 111.26L346.379 106.8L346.889 91.8L339.689 86.8C339.31 86.541 339.026 86.1653 338.879 85.73C338.879 85.68 338.879 85.62 338.879 85.56C338.109 82.7959 337.064 80.1158 335.759 77.56C335.528 77.1024 335.471 76.5763 335.599 76.08L337.399 69L327.149 58L319.959 59.32C319.457 59.411 318.939 59.3187 318.499 59.06C316.018 57.5717 313.391 56.342 310.659 55.39C310.503 55.3397 310.352 55.2727 310.209 55.19C309.921 55.0101 309.681 54.763 309.509 54.47L304.999 46.92L289.999 46.4L284.999 53.61C284.701 54.0326 284.261 54.3343 283.759 54.46C280.974 55.221 278.274 56.263 275.699 57.57C275.246 57.8016 274.722 57.8585 274.229 57.73L267.149 55.93L256.149 66.18L257.469 73.35C257.548 73.8022 257.481 74.2677 257.279 74.68L257.179 74.85C255.692 77.3356 254.469 79.9699 253.529 82.71C253.364 83.1798 253.038 83.5763 252.609 83.83L245.079 88.3L244.569 103.3L251.779 108.3C252.19 108.581 252.488 108.999 252.619 109.48C253.369 112.288 254.411 115.01 255.729 117.6C255.801 117.747 255.858 117.902 255.899 118.06C255.975 118.389 255.975 118.731 255.899 119.06L254.099 126.06L264.349 137.06L271.489 135.75C271.988 135.659 272.503 135.751 272.939 136.01C275.439 137.495 278.083 138.725 280.829 139.68C281.325 139.827 281.744 140.16 281.999 140.61L286.459 148.23ZM295.729 129.26C295.359 129.26 294.989 129.26 294.619 129.26C286.306 129.114 278.388 125.69 272.587 119.734C266.786 113.778 263.572 105.771 263.646 97.4573C263.719 89.1434 267.073 81.195 272.978 75.3419C278.882 69.4888 286.86 66.2048 295.174 66.2048C303.489 66.2048 311.466 69.4888 317.371 75.3419C323.276 81.195 326.63 89.1434 326.703 97.4573C326.776 105.771 323.563 113.778 317.762 119.734C311.961 125.69 304.042 129.114 295.729 129.26ZM295.729 70.17C288.465 70.2952 281.544 73.2851 276.473 78.4886C271.403 83.6921 268.593 90.6881 268.655 97.9534C268.718 105.219 271.648 112.165 276.808 117.28C281.967 122.396 288.939 125.266 296.204 125.266C303.47 125.266 310.441 122.396 315.601 117.28C320.761 112.165 323.691 105.219 323.753 97.9534C323.816 90.6881 321.006 83.6921 315.935 78.4886C310.865 73.2851 303.944 70.2952 296.679 70.17H295.729Z" fill="#EBEBEB"/>
<path d="M342.44 28.32L335.26 26.4L333.34 19.22L336.15 16.42L339.11 22.55L345.25 25.52L342.44 28.32Z" fill="#E0E0E0"/>
<path d="M342.879 23.52C343.19 23.2094 343.436 22.8407 343.604 22.4349C343.773 22.0291 343.859 21.5942 343.859 21.155C343.859 20.7158 343.773 20.2808 343.604 19.8751C343.436 19.4693 343.19 19.1006 342.879 18.79C342.569 18.4794 342.2 18.2331 341.794 18.065C341.389 17.8969 340.954 17.8104 340.514 17.8104C340.075 17.8104 339.64 17.8969 339.234 18.065C338.829 18.2331 338.46 18.4794 338.149 18.79L341.719 13.43L346.499 15.85L347.549 20.85L342.879 23.52Z" fill="#E0E0E0"/>
<path d="M335.58 17L340.84 11.74L348 13.65L349.93 20.82L344.67 26.08L337.5 24.15L335.58 17ZM345.13 21.3C345.598 20.8314 345.917 20.2344 346.046 19.5847C346.175 18.9349 346.108 18.2615 345.855 17.6496C345.601 17.0377 345.172 16.5147 344.621 16.1467C344.07 15.7788 343.423 15.5824 342.76 15.5824C342.098 15.5824 341.45 15.7788 340.899 16.1467C340.348 16.5147 339.919 17.0377 339.665 17.6496C339.412 18.2615 339.345 18.9349 339.474 19.5847C339.603 20.2344 339.922 20.8314 340.39 21.3C341.024 21.9215 341.877 22.2679 342.764 22.2642C343.652 22.2604 344.502 21.9068 345.13 21.28V21.3Z" fill="#F0F0F0"/>
<path d="M49.22 219.71L53.07 218.67L54.1 214.82L52.6 213.32L51.01 216.61L47.71 218.2L49.22 219.71Z" fill="#E0E0E0"/>
<path d="M48.9995 217.13C48.6986 216.786 48.5396 216.341 48.5547 215.885C48.5698 215.428 48.7579 214.994 49.0809 214.671C49.4039 214.348 49.8376 214.16 50.2941 214.145C50.7506 214.13 51.1958 214.289 51.5395 214.59L49.6294 211.72L46.9995 213L46.4395 215.7L48.9995 217.13Z" fill="#E0E0E0"/>
<path d="M52.8995 213.62L50.0795 210.8L46.2295 211.8L45.2295 215.65L47.9995 218.5L51.8495 217.5L52.8995 213.62ZM47.7795 215.93C47.5941 215.768 47.444 215.569 47.3385 215.346C47.233 215.124 47.1744 214.882 47.1662 214.635C47.1581 214.389 47.2005 214.144 47.2911 213.914C47.3816 213.685 47.5182 213.477 47.6924 213.303C47.8667 213.129 48.0748 212.992 48.304 212.902C48.5332 212.811 48.7786 212.769 49.0248 212.777C49.2711 212.785 49.5131 212.843 49.7358 212.949C49.9585 213.054 50.1572 213.205 50.3195 213.39C50.6204 213.734 50.7794 214.179 50.7642 214.635C50.7491 215.092 50.561 215.526 50.238 215.848C49.915 216.171 49.4814 216.36 49.0248 216.375C48.5683 216.39 48.1231 216.231 47.7795 215.93V215.93Z" fill="#F0F0F0"/>
<path d="M35.3597 8.66001L38.5597 11.86C38.9599 12.2533 39.4986 12.4737 40.0597 12.4737C40.6208 12.4737 41.1595 12.2533 41.5597 11.86V11.86C41.9506 11.4586 42.1694 10.9204 42.1694 10.36C42.1694 9.79966 41.9506 9.26145 41.5597 8.86001L38.3697 5.67001C37.9682 5.27906 37.43 5.0603 36.8697 5.0603C36.3093 5.0603 35.7711 5.27906 35.3697 5.67001V5.67001C34.978 6.06846 34.7577 6.60427 34.7559 7.16297C34.754 7.72167 34.9707 8.25895 35.3597 8.66001Z" fill="#F0F0F0"/>
<path d="M33.1102 0.709975C33.9452 0.477778 34.8299 0.494476 35.6556 0.758025C36.4812 1.02157 37.212 1.5205 37.758 2.19354C38.3041 2.86658 38.6418 3.68443 38.7295 4.54668C38.8173 5.40893 38.6514 6.27805 38.2521 7.04731C37.8528 7.81657 37.2376 8.45249 36.482 8.877C35.7263 9.3015 34.8632 9.49611 33.9985 9.43692C33.1338 9.37773 32.3052 9.06732 31.6145 8.54381C30.9238 8.0203 30.4009 7.30647 30.1102 6.48997C29.9256 5.91354 29.8569 5.30629 29.908 4.70318C29.959 4.10008 30.1288 3.51303 30.4077 2.97581C30.6865 2.4386 31.0688 1.96184 31.5326 1.57297C31.9965 1.18411 32.5326 0.890814 33.1102 0.709975V0.709975Z" fill="#E0E0E0"/>
<path d="M29.6296 5.95462L30.0928 7.24396L39.5981 3.82934L39.1349 2.54L29.6296 5.95462Z" fill="#F0F0F0"/>
<path d="M209 350.56C316.083 350.56 402.89 345.492 402.89 339.24C402.89 332.988 316.083 327.92 209 327.92C101.918 327.92 15.1104 332.988 15.1104 339.24C15.1104 345.492 101.918 350.56 209 350.56Z" fill="#F5F5F5"/>
<path d="M45.7202 43.65C44.7202 39.24 45.1602 35.54 47.0602 32.52C48.9602 29.5 52.0602 27.52 56.4702 26.52C60.8802 25.52 64.6902 25.92 67.6702 27.78C70.6502 29.64 72.6702 32.78 73.6702 37.08C74.3762 39.734 74.4345 42.5188 73.8402 45.2C73.2588 47.4268 72.0304 49.4312 70.3102 50.96C68.267 52.6802 65.8147 53.8443 63.1902 54.34C60.6175 55.0231 57.9236 55.1154 55.3102 54.61C53.0385 54.0579 50.9838 52.839 49.4102 51.11C47.5302 49.0014 46.2553 46.4238 45.7202 43.65V43.65ZM54.0602 41.79C54.6802 44.51 55.6302 46.35 56.9102 47.31C57.5709 47.7506 58.3139 48.053 59.0945 48.199C59.8752 48.3451 60.6772 48.3318 61.4525 48.1599C62.2279 47.988 62.9604 47.6611 63.6062 47.1989C64.2519 46.7366 64.7975 46.1485 65.2102 45.47C65.9302 44.08 65.9402 41.87 65.2602 38.86C64.6802 36.32 63.7435 34.58 62.4502 33.64C61.799 33.1726 61.0514 32.8573 60.2622 32.7171C59.473 32.5769 58.6625 32.6155 57.8902 32.83C57.1172 32.9748 56.3872 33.293 55.755 33.7606C55.1227 34.2283 54.6048 34.8333 54.2402 35.53C53.5002 37 53.4302 39 54.0602 41.79Z" fill="#4E5558"/>
<path d="M77.5899 40.35C77.2347 38.9873 77.1713 37.5648 77.404 36.1758C77.6366 34.7869 78.16 33.4627 78.9399 32.29C79.8142 31.0442 80.9259 29.9833 82.2113 29.1681C83.4966 28.353 84.9302 27.7997 86.4299 27.54C90.3433 26.6534 93.5566 27.1167 96.0699 28.93C98.1851 30.5697 99.6231 32.9302 100.11 35.5618C100.597 38.1934 100.098 40.9122 98.7099 43.2C97.1499 45.58 94.6099 47.1667 91.0899 47.96C88.3781 48.7182 85.4847 48.4842 82.9299 47.3C81.5638 46.6324 80.3708 45.6575 79.4443 44.4517C78.5179 43.2459 77.8832 41.8421 77.5899 40.35V40.35ZM85.0999 38.62C85.3022 40.0174 85.9846 41.3008 87.0299 42.25C87.4443 42.5637 87.922 42.7833 88.4298 42.8937C88.9376 43.0041 89.4633 43.0027 89.9705 42.8894C90.4777 42.7762 90.9542 42.5539 91.3668 42.238C91.7794 41.9221 92.1183 41.5201 92.3599 41.06C92.8835 39.7168 92.9329 38.2351 92.4999 36.86C92.2895 35.4954 91.6149 34.2451 90.5899 33.32C90.1922 32.9976 89.7254 32.7711 89.2259 32.6584C88.7264 32.5457 88.2076 32.5497 87.7099 32.67C87.1911 32.7776 86.7035 33.0018 86.2842 33.3258C85.8649 33.6498 85.5249 34.0651 85.2899 34.54C84.7514 35.836 84.6842 37.2797 85.0999 38.62Z" fill="#4E5558"/>
<path d="M107.58 51.57L101.45 24.57L108.45 22.97L109.11 25.86C109.604 24.7075 110.321 23.6641 111.22 22.79C112.207 21.9526 113.385 21.372 114.65 21.1C115.819 20.782 117.05 20.7637 118.228 21.0469C119.406 21.33 120.493 21.9055 121.39 22.72C123.367 24.5676 124.707 26.9935 125.22 29.65C125.96 32.9 125.74 35.56 124.58 37.65C124.028 38.6493 123.266 39.5166 122.346 40.1918C121.425 40.8669 120.369 41.3338 119.25 41.56C118.172 41.8156 117.055 41.8598 115.96 41.69C114.91 41.5061 113.909 41.1078 113.02 40.52L115.14 49.85L107.58 51.57ZM111.19 32.71C111.374 33.959 111.998 35.1011 112.95 35.93C113.332 36.2224 113.775 36.4246 114.246 36.5215C114.717 36.6185 115.204 36.6077 115.67 36.49C116.103 36.4032 116.51 36.2159 116.857 35.9432C117.205 35.6705 117.483 35.3201 117.67 34.92C118.095 33.6685 118.095 32.3116 117.67 31.06C117.487 29.8048 116.885 28.6486 115.96 27.78C115.617 27.4952 115.214 27.293 114.78 27.189C114.347 27.0849 113.895 27.0819 113.46 27.18C113.001 27.2792 112.57 27.4809 112.199 27.7701C111.829 28.0593 111.528 28.4284 111.32 28.85C110.831 30.0827 110.785 31.4472 111.19 32.71Z" fill="#4E5558"/>
<path d="M128.43 33.3L135.71 30.91C136.097 31.6138 136.7 32.1746 137.43 32.51C138.216 32.7375 139.047 32.7556 139.842 32.5627C140.636 32.3697 141.367 31.9723 141.96 31.41C142.126 31.2335 142.247 31.0193 142.311 30.7858C142.376 30.5523 142.382 30.3066 142.33 30.07C142.27 29.7993 142.13 29.5527 141.929 29.362C141.728 29.1713 141.474 29.0453 141.2 29C140.07 28.876 138.93 28.876 137.8 29C135.904 29.1613 133.997 29.1613 132.1 29C130.99 28.8389 129.949 28.3635 129.1 27.63C128.195 26.8462 127.569 25.7888 127.318 24.6178C127.068 23.4467 127.205 22.2259 127.71 21.14C128.293 19.978 129.2 19.0092 130.32 18.35C131.915 17.4438 133.648 16.8053 135.45 16.46C137.17 15.9932 138.949 15.7776 140.73 15.82C141.849 15.892 142.934 16.2352 143.89 16.82C144.91 17.5076 145.775 18.3999 146.43 19.44L139.43 21.75C139.169 21.229 138.734 20.8153 138.2 20.58C137.471 20.319 136.68 20.2842 135.93 20.48C135.268 20.5723 134.654 20.8777 134.18 21.35C134.03 21.511 133.921 21.7063 133.864 21.919C133.806 22.1316 133.802 22.3551 133.85 22.57C133.904 22.8064 134.029 23.0209 134.208 23.1852C134.386 23.3494 134.61 23.4557 134.85 23.49C135.968 23.6197 137.099 23.5962 138.21 23.42C140.139 23.1405 142.095 23.1136 144.03 23.34C145.248 23.5119 146.388 24.0369 147.31 24.85C148.144 25.6061 148.724 26.6016 148.97 27.7C149.226 28.8778 149.133 30.1048 148.7 31.23C148.172 32.5621 147.251 33.7023 146.06 34.5C144.306 35.6466 142.341 36.4319 140.28 36.81C136.714 37.6233 134.047 37.6933 132.28 37.02C130.559 36.3326 129.176 34.9967 128.43 33.3V33.3Z" fill="#4E5558"/>
<path d="M152.851 8.57001H161.061V14.87L159.551 27.54H154.471L152.851 14.89V8.57001ZM153.251 29.45H160.911V36.23H153.251V29.45Z" fill="#4E5558"/>
<path d="M87.6802 94.58H87.5002C83.0002 92.83 80.3102 91.13 78.9102 89.08C77.8144 89.2877 76.6806 89.1332 75.6802 88.64C74.5084 88.0665 73.5362 87.1536 72.8902 86.02C72.5507 86.2806 72.1508 86.4511 71.7278 86.5158C71.3047 86.5805 70.8721 86.5372 70.4702 86.39C69.2378 85.9289 68.1862 85.084 67.4702 83.98C67.0224 84.3136 66.4657 84.4671 65.9102 84.41C62.9102 84.17 58.9102 78.25 58.6202 71.95C58.6173 71.817 58.6654 71.688 58.7547 71.5894C58.844 71.4908 58.9676 71.4302 59.1002 71.42C59.1659 71.4173 59.2315 71.4276 59.2932 71.4503C59.3549 71.473 59.4115 71.5076 59.4598 71.5522C59.5081 71.5968 59.5471 71.6504 59.5746 71.7101C59.6022 71.7698 59.6177 71.8343 59.6202 71.9C59.9002 77.9 63.7302 83.23 66.0002 83.41C66.1654 83.4286 66.3326 83.4143 66.4922 83.3679C66.6518 83.3216 66.8007 83.2441 66.9302 83.14C66.1481 81.7143 65.657 80.1474 65.4853 78.5303C65.3137 76.9132 65.4649 75.2782 65.9302 73.72C66.7902 70.72 67.5502 69.54 68.4702 69.72C70.1902 70.15 69.9602 76.72 69.0502 81.01C68.9123 81.7837 68.6272 82.5238 68.2102 83.19C68.7998 84.1785 69.6897 84.9528 70.7502 85.4C71.0329 85.5076 71.3405 85.5319 71.6365 85.4698C71.9326 85.4078 72.2046 85.2621 72.4202 85.05C71.6402 83.12 71.4202 80.48 72.5402 77.12C73.9402 72.69 74.5402 72.57 74.8502 72.49C74.9668 72.4655 75.0879 72.473 75.2006 72.5117C75.3133 72.5505 75.4134 72.619 75.4902 72.71C76.4202 73.76 75.3102 80.64 74.1502 84.04C74.0144 84.4492 73.8261 84.8391 73.5902 85.2C74.1268 86.2816 75.0008 87.1591 76.0802 87.7C76.7882 88.0443 77.5755 88.1928 78.3602 88.13C78.2702 87.94 78.1902 87.75 78.1102 87.55C77.3202 85.4 77.7102 82.93 79.3002 79.97C80.3502 78.02 81.2102 77.1 82.0102 77.1C82.2226 77.1028 82.4297 77.1665 82.6069 77.2835C82.7842 77.4005 82.9242 77.5659 83.0102 77.76C83.8802 79.37 83.2502 84.68 81.5302 87.32C81.1275 87.9252 80.5674 88.4092 79.9102 88.72C81.2502 90.48 83.8002 92.03 87.9102 93.61C87.9719 93.6322 88.0284 93.6666 88.0766 93.711C88.1247 93.7554 88.1634 93.8091 88.1904 93.8687C88.2175 93.9284 88.2323 93.9929 88.2339 94.0584C88.2356 94.1239 88.2242 94.189 88.2002 94.25C88.1614 94.3542 88.0896 94.4428 87.9957 94.5024C87.9018 94.5619 87.791 94.5892 87.6802 94.58ZM82.0002 78.11C82.0002 78.11 81.4302 78.11 80.1702 80.46C78.7202 83.14 78.3502 85.35 79.0402 87.21C79.1239 87.4403 79.2241 87.6642 79.3402 87.88C79.8819 87.6562 80.3424 87.2724 80.6602 86.78C82.0602 84.64 82.7302 80.24 82.2102 78.52C82.1402 78.17 82.0002 78.11 82.0002 78.11ZM74.8202 73.9C74.2789 75.0385 73.8308 76.2191 73.4802 77.43C72.7133 79.5287 72.5811 81.8067 73.1002 83.98L73.1902 83.72C74.2404 80.5503 74.8001 77.2388 74.8502 73.9H74.8202ZM68.2402 70.75C68.0702 70.9 67.5802 71.53 66.8902 73.97C66.0742 76.7083 66.3316 79.6547 67.6102 82.21C67.8154 81.7629 67.9665 81.2929 68.0602 80.81C69.1302 75.9 68.8302 71.46 68.2702 70.75H68.2402Z" fill="#4E5558"/>
<path d="M125.701 147C124.102 147.015 122.528 146.605 121.141 145.81C121.026 145.741 120.944 145.631 120.91 145.502C120.876 145.373 120.895 145.236 120.961 145.12C120.994 145.064 121.038 145.014 121.09 144.975C121.142 144.936 121.202 144.908 121.265 144.892C121.328 144.876 121.394 144.873 121.459 144.883C121.523 144.893 121.585 144.916 121.641 144.95C125.211 147.04 129.821 145.58 130.771 144.05C130.839 143.954 130.888 143.845 130.914 143.73C130.94 143.615 130.942 143.496 130.921 143.38C129.095 143.485 127.288 142.97 125.791 141.92C123.241 140.33 123.041 139.85 123.061 139.47C123.066 139.361 123.1 139.255 123.16 139.163C123.219 139.072 123.303 138.998 123.401 138.95C124.401 138.45 128.911 140.52 130.791 141.76C131.016 141.91 131.224 142.084 131.411 142.28C132.149 142.112 132.815 141.713 133.311 141.14C133.59 140.812 133.791 140.426 133.901 140.01H133.701C132.101 140.17 130.501 139.48 128.791 137.9C127.611 136.82 127.161 136.07 127.311 135.48C127.356 135.314 127.448 135.165 127.576 135.05C127.703 134.935 127.861 134.858 128.031 134.83C129.411 134.48 132.831 135.94 134.221 137.47C134.531 137.803 134.751 138.209 134.861 138.65C136.171 138.04 137.551 136.65 139.181 134.38C139.219 134.326 139.267 134.28 139.323 134.245C139.378 134.209 139.441 134.185 139.506 134.174C139.571 134.163 139.637 134.165 139.702 134.18C139.766 134.194 139.827 134.222 139.881 134.26C139.988 134.338 140.06 134.455 140.083 134.586C140.105 134.716 140.076 134.851 140.001 134.96C138.111 137.6 136.531 139.1 134.951 139.71C134.869 140.449 134.566 141.146 134.081 141.71C133.505 142.38 132.748 142.869 131.901 143.12C131.948 143.359 131.948 143.604 131.9 143.843C131.852 144.082 131.757 144.308 131.621 144.51C130.781 145.94 128.361 147 125.701 147ZM124.811 140.06C125.151 140.31 125.631 140.64 126.321 141.06C127.396 141.785 128.631 142.238 129.921 142.38C128.311 141.415 126.597 140.636 124.811 140.06V140.06ZM128.301 135.81C128.588 136.351 128.987 136.825 129.471 137.2C130.951 138.57 132.301 139.2 133.601 139.04H133.921C133.85 138.729 133.698 138.443 133.481 138.21C132.081 136.63 129.001 135.65 128.301 135.81Z" fill="#4E5558"/>
<path d="M138.94 145.63L123.36 148.46L109.21 71.24L79.1504 76.7L30.1504 163.7L35.4104 192.41L98.2604 181L102.56 204.48L132.62 199L128.32 175.52L143.9 172.69L138.94 145.63ZM60.0904 160L86.0904 114.43L93.3404 153.97L60.0904 160Z" fill="#B0BEC5"/>
<path d="M264.43 66C263.957 61.1457 262.882 56.3691 261.23 51.78C259.531 47.3841 257.17 43.2735 254.23 39.59C250.75 35.3046 246.427 31.7786 241.53 29.23C236.197 26.3033 229.123 24.2667 220.31 23.12C202.01 20.7333 187.75 23.98 177.53 32.86C167.31 41.74 160.577 58.74 157.33 83.86C156.034 93.2481 155.699 102.744 156.33 112.2C156.997 120.867 158.59 127.843 161.11 133.13C164.317 140.259 169.376 146.399 175.76 150.91C182.073 155.343 190.74 158.273 201.76 159.7C221.347 162.253 235.87 158.49 245.33 148.41C254.79 138.33 261.057 121.297 264.13 97.31C265.496 86.9239 265.597 76.4104 264.43 66V66Z" fill="#B0BEC5"/>
<path d="M210.77 149.43C208.36 149.35 205.77 149.13 203.16 148.79C194 147.6 186.92 145.28 182.1 141.9C177.293 138.506 173.493 133.876 171.1 128.5L171.05 128.39C169.13 124.39 167.87 118.64 167.32 111.39C166.737 102.681 167.046 93.936 168.24 85.29C171.81 57.57 179.18 46 184.73 41.18C191.21 35.56 199.96 33.02 211.46 33.42C213.82 33.5 216.32 33.71 218.89 34.04C226.27 35.04 232.12 36.64 236.26 38.9C239.837 40.7423 243.004 43.2902 245.57 46.39C247.815 49.1897 249.619 52.3157 250.92 55.66C252.249 59.3891 253.109 63.2688 253.48 67.21C254.547 76.7598 254.449 86.4037 253.19 95.93C250.42 117.47 245.06 132.61 237.27 140.93C231.49 147.09 222.82 149.93 210.76 149.47L210.77 149.43Z" fill="#4E5558"/>
<path d="M230.341 66.29L230.471 62.5L228.141 61.74C228.042 60.4581 227.834 59.1869 227.521 57.94L229.521 56.48L228.181 52.92L225.741 53.12C225.167 51.9758 224.498 50.882 223.741 49.85L225.001 47.74L222.401 44.97L220.221 46.09C219.245 45.2514 218.202 44.4954 217.101 43.83L217.451 41.41L213.991 39.84L212.411 41.7C211.187 41.3035 209.933 41.0092 208.661 40.82L208.071 38.45L204.271 38.32L203.521 40.64C202.239 40.7426 200.968 40.9499 199.721 41.26L198.251 39.26L194.691 40.59L194.891 43.03C193.747 43.6043 192.653 44.2733 191.621 45.03L189.521 43.76L186.741 46.35L187.861 48.54C187.02 49.5148 186.267 50.5622 185.611 51.67L183.191 51.3L181.611 54.76L183.481 56.34C183.075 57.5643 182.78 58.8228 182.601 60.1L180.221 60.7L180.091 64.48L182.421 65.24C182.518 66.5254 182.726 67.8 183.041 69.05L181.041 70.5L182.381 74.06L184.821 73.86C185.389 75.0074 186.058 76.1017 186.821 77.13L185.551 79.24L188.151 82.01L190.331 80.9C191.306 81.7354 192.35 82.488 193.451 83.15L193.091 85.57L196.551 87.14L198.141 85.29C199.368 85.6843 200.625 85.9753 201.901 86.16L202.491 88.54L206.281 88.67L207.031 86.34C208.316 86.2424 209.591 86.035 210.841 85.72L212.291 87.72L215.851 86.39L215.661 83.96C216.801 83.3784 217.894 82.7097 218.931 81.96L221.031 83.22L223.811 80.63L222.701 78.44C223.539 77.4685 224.288 76.4244 224.941 75.32L227.361 75.68L228.941 72.22L227.081 70.64C227.479 69.4175 227.77 68.1628 227.951 66.89L230.341 66.29ZM204.741 78.56C201.779 78.4518 198.916 77.4686 196.512 75.7344C194.108 74.0003 192.272 71.593 191.236 68.8163C190.199 66.0397 190.008 63.0181 190.688 60.1332C191.367 57.2482 192.885 54.629 195.051 52.6063C197.218 50.5836 199.935 49.2479 202.859 48.768C205.784 48.288 208.786 48.6853 211.485 49.9096C214.184 51.1339 216.46 53.1304 218.025 55.647C219.591 58.1637 220.376 61.0877 220.281 64.05C220.218 66.0245 219.765 67.9671 218.949 69.7662C218.133 71.5653 216.969 73.1855 215.526 74.5337C214.082 75.882 212.386 76.9317 210.535 77.6226C208.684 78.3136 206.715 78.6321 204.741 78.56V78.56Z" fill="#B0BEC5"/>
<path opacity="0.3" d="M246.121 135.87L246.401 133.31L244.861 132.69C244.858 131.819 244.785 130.949 244.641 130.09L246.031 129.2L245.321 126.73H243.661C243.332 125.927 242.934 125.154 242.471 124.42L243.411 123.06L241.811 121.06L240.281 121.7C239.661 121.087 238.992 120.525 238.281 120.02L238.651 118.4L236.401 117.16L235.221 118.35C234.417 118.019 233.588 117.755 232.741 117.56L232.461 115.93L229.911 115.64L229.281 117.18C228.412 117.184 227.545 117.264 226.691 117.42L225.801 116L223.331 116.73V118.39C222.527 118.722 221.754 119.123 221.021 119.59L219.661 118.59L217.661 120.19L218.301 121.72C217.691 122.341 217.133 123.009 216.631 123.72L215.011 123.36L213.781 125.61L214.961 126.78C214.626 127.585 214.361 128.419 214.171 129.27L212.531 129.54L212.261 132.09L213.791 132.73C213.791 133.595 213.868 134.458 214.021 135.31L212.611 136.2L213.331 138.67H215.001C215.335 139.469 215.736 140.239 216.201 140.97L215.201 142.33L216.801 144.33L218.351 143.68C218.966 144.295 219.635 144.854 220.351 145.35L220.001 147L222.251 148.23L223.421 147.06C224.225 147.383 225.055 147.64 225.901 147.83L226.191 149.47L228.741 149.75L229.361 148.22C230.245 148.219 231.128 148.145 232.001 148L232.891 149.41L235.351 148.69V147.03C236.155 146.692 236.93 146.291 237.671 145.83L239.011 146.83L241.011 145.22L240.361 143.69C240.977 143.07 241.542 142.401 242.051 141.69L243.661 142.05L244.901 139.8L243.721 138.64C244.042 137.835 244.3 137.006 244.491 136.16L246.121 135.87ZM233.251 134.87C232.828 135.644 232.184 136.276 231.402 136.684C230.62 137.093 229.735 137.26 228.857 137.165C227.98 137.07 227.151 136.717 226.474 136.151C225.798 135.585 225.304 134.83 225.057 133.983C224.809 133.137 224.818 132.235 225.082 131.394C225.347 130.552 225.855 129.808 226.543 129.255C227.231 128.702 228.067 128.366 228.946 128.288C229.825 128.211 230.707 128.396 231.481 128.82C232.515 129.39 233.282 130.346 233.614 131.48C233.945 132.614 233.815 133.832 233.251 134.87V134.87Z" fill="#B0BEC5"/>
<path d="M260.291 92.65L257.291 90.59C256.996 89.5191 256.594 88.4806 256.091 87.49L256.851 84.49L252.531 79.86L249.531 80.42C248.579 79.8534 247.574 79.3811 246.531 79.01V79.01L244.681 75.89L238.351 75.68L236.291 78.68C235.218 78.9707 234.179 79.3729 233.191 79.88L230.191 79.11L225.561 83.44L226.121 86.44C225.546 87.3874 225.074 88.393 224.711 89.44L221.601 91.29L221.381 97.62L224.381 99.68C224.672 100.759 225.074 101.804 225.581 102.8V102.8L224.821 105.8L229.141 110.43L232.141 109.88C233.093 110.446 234.098 110.918 235.141 111.29V111.29L236.981 114.4L243.321 114.62L245.371 111.62C246.452 111.327 247.501 110.925 248.501 110.42V110.42L251.501 111.18L256.131 106.86L255.581 103.86C256.149 102.909 256.621 101.904 256.991 100.86V100.86L260.101 99.01L260.291 92.65ZM240.561 102.27C239.153 102.222 237.792 101.757 236.649 100.935C235.505 100.113 234.631 98.9701 234.137 97.6513C233.643 96.3325 233.552 94.8968 233.874 93.5258C234.196 92.1549 234.917 90.9102 235.947 89.9493C236.976 88.9884 238.268 88.3543 239.657 88.1273C241.047 87.9003 242.473 88.0905 243.755 88.674C245.037 89.2574 246.117 90.2079 246.858 91.4051C247.6 92.6023 247.969 93.9926 247.921 95.4C247.853 97.286 247.04 99.0683 245.661 100.356C244.281 101.644 242.447 102.332 240.561 102.27V102.27Z" fill="white"/>
<path d="M282 42.12L282.52 40.87C282.874 40.6707 283.209 40.4398 283.52 40.18H284.68L286.04 38.18L285.6 37.11C285.769 36.7536 285.903 36.3819 286 36V36L287 35.08L286.58 32.73L285.32 32.21C285.123 31.8554 284.892 31.5205 284.63 31.21V30.05L282.68 28.69L281.6 29.14C281.206 29.0009 280.796 28.907 280.38 28.86L279.46 27.86L277.12 28.28L276.59 29.54C276.219 29.7324 275.868 29.9601 275.54 30.22V30.22H274.39L273.03 32.22L273.47 33.29C273.336 33.6861 273.242 34.0949 273.19 34.51L272.19 35.44L272.61 37.78L273.87 38.3C274.061 38.6564 274.289 38.9916 274.55 39.3V39.3V40.45L276.55 41.81L277.62 41.37C278.021 41.5 278.433 41.5904 278.85 41.64V41.64L279.77 42.64L282 42.12ZM277 35.64C276.906 35.1182 276.968 34.5801 277.18 34.0938C277.391 33.6075 277.742 33.1948 278.188 32.908C278.634 32.6211 279.155 32.473 279.685 32.4825C280.215 32.4919 280.731 32.6584 281.166 32.9609C281.602 33.2634 281.938 33.6883 282.132 34.1818C282.326 34.6753 282.369 35.2153 282.256 35.7334C282.143 36.2514 281.879 36.7243 281.497 37.0922C281.115 37.4601 280.632 37.7064 280.11 37.8C279.412 37.9225 278.693 37.7644 278.111 37.3599C277.529 36.9554 277.129 36.3372 277 35.64V35.64Z" fill="#B0BEC5"/>
<path d="M254.611 35.49L253.841 34.84C255.491 32.7933 257.53 31.0939 259.841 29.84L260.311 30.72C258.113 31.9164 256.176 33.5378 254.611 35.49V35.49Z" fill="#B0BEC5"/>
<path d="M262.59 29.8L262.2 28.88C265.893 27.2752 269.931 26.6286 273.94 27L273.84 28C269.998 27.6379 266.127 28.2572 262.59 29.8V29.8Z" fill="#B0BEC5"/>
<path d="M260.701 36.72L259.881 36.16C262.29 32.9067 265.796 30.6365 269.751 29.77L269.941 30.77C266.245 31.5771 262.965 33.6896 260.701 36.72V36.72Z" fill="#B0BEC5"/>
<path d="M194.34 133C194.204 132.996 194.074 132.938 193.98 132.84L191.89 130.68C190.824 130.583 189.77 130.389 188.74 130.1L185.47 131.54C185.398 131.579 185.317 131.6 185.235 131.6C185.153 131.6 185.072 131.579 185 131.54L179.52 127.91C179.449 127.863 179.392 127.799 179.353 127.724C179.315 127.649 179.296 127.565 179.3 127.48V123.92C178.631 123.083 178.042 122.186 177.54 121.24L174.73 120.16C174.651 120.13 174.582 120.08 174.527 120.015C174.473 119.95 174.436 119.873 174.42 119.79L173.12 113.35C173.103 113.268 173.107 113.182 173.131 113.102C173.156 113.022 173.2 112.949 173.26 112.89L175.42 110.8C175.523 109.735 175.717 108.682 176 107.65L174.56 104.38C174.521 104.308 174.5 104.227 174.5 104.145C174.5 104.063 174.521 103.982 174.56 103.91L178.19 98.43C178.235 98.3579 178.299 98.2993 178.375 98.2606C178.45 98.2218 178.535 98.2043 178.62 98.21L182.18 98.26C183.014 97.5878 183.912 96.9984 184.86 96.5L185.95 93.69C185.979 93.6121 186.027 93.5427 186.09 93.4885C186.153 93.4342 186.229 93.3969 186.31 93.38L192.75 92.08C192.832 92.0619 192.918 92.0652 192.998 92.0897C193.079 92.1142 193.152 92.1591 193.21 92.22L195.3 94.38C196.369 94.4775 197.426 94.6716 198.46 94.96L201.72 93.52C201.794 93.4806 201.876 93.46 201.96 93.46C202.044 93.46 202.126 93.4806 202.2 93.52L207.67 97.15C207.739 97.1986 207.796 97.2629 207.836 97.3376C207.876 97.4123 207.898 97.4953 207.9 97.58L207.84 101.14C208.512 101.976 209.105 102.874 209.61 103.82L212.41 104.91C212.488 104.939 212.557 104.987 212.612 105.05C212.666 105.113 212.703 105.189 212.72 105.27L214.03 111.71C214.045 111.792 214.041 111.877 214.016 111.957C213.992 112.037 213.949 112.11 213.89 112.17L211.72 114.27C211.62 115.332 211.426 116.383 211.14 117.41L212.58 120.68C212.619 120.754 212.64 120.836 212.64 120.92C212.64 121.004 212.619 121.086 212.58 121.16L209 126.59C208.953 126.658 208.89 126.713 208.817 126.752C208.744 126.79 208.663 126.81 208.58 126.81L205.01 126.76C204.173 127.423 203.279 128.012 202.34 128.52L201.25 131.33C201.22 131.409 201.171 131.479 201.106 131.534C201.041 131.588 200.963 131.625 200.88 131.64L194.44 133H194.34ZM188.71 129C188.756 128.991 188.804 128.991 188.85 129C189.93 129.315 191.039 129.519 192.16 129.61C192.28 129.624 192.392 129.677 192.48 129.76L194.48 131.86L200.38 130.67L201.44 127.93C201.489 127.819 201.574 127.728 201.68 127.67C202.679 127.153 203.621 126.533 204.49 125.82C204.582 125.743 204.7 125.703 204.82 125.71L208.29 125.76L211.61 120.76L210.21 117.58C210.17 117.47 210.17 117.35 210.21 117.24C210.519 116.159 210.724 115.05 210.82 113.93C210.83 113.809 210.883 113.695 210.97 113.61L213.07 111.61L211.88 105.71L209.15 104.65C209.033 104.607 208.936 104.521 208.88 104.41C208.361 103.413 207.741 102.471 207.03 101.6C206.959 101.509 206.92 101.396 206.92 101.28V97.8L201.92 94.48L198.75 95.88C198.637 95.9205 198.513 95.9205 198.4 95.88C197.316 95.567 196.204 95.3627 195.08 95.27C194.96 95.2559 194.848 95.2032 194.76 95.12L192.76 93.02L186.86 94.22L185.81 97C185.768 97.1146 185.686 97.2104 185.58 97.27C184.577 97.7852 183.632 98.4054 182.76 99.12C182.717 99.159 182.666 99.1889 182.611 99.2078C182.556 99.2267 182.498 99.2343 182.44 99.23L178.97 99.18L175.64 104.18L177.04 107.36C177.072 107.427 177.089 107.501 177.089 107.575C177.089 107.649 177.072 107.723 177.04 107.79C176.744 108.846 176.549 109.927 176.46 111.02C176.451 111.141 176.397 111.255 176.31 111.34L174.21 113.34L175.41 119.24L178.13 120.3C178.251 120.35 178.351 120.443 178.41 120.56C178.926 121.551 179.542 122.486 180.25 123.35C180.324 123.44 180.363 123.554 180.36 123.67V127.15L185.36 130.47L188.54 129.07C188.592 129.037 188.65 129.013 188.71 129V129ZM193.62 125.76C191.213 125.758 188.852 125.104 186.787 123.867C184.722 122.63 183.031 120.856 181.893 118.735C180.756 116.614 180.214 114.224 180.326 111.82C180.438 109.415 181.2 107.086 182.53 105.08V105.08C183.802 103.155 185.552 101.594 187.608 100.548C189.665 99.5023 191.957 99.0082 194.262 99.1141C196.567 99.2199 198.804 99.9221 200.756 101.152C202.708 102.382 204.308 104.097 205.398 106.13C206.488 108.163 207.032 110.445 206.977 112.751C206.921 115.058 206.268 117.31 205.081 119.288C203.894 121.267 202.214 122.903 200.205 124.037C198.196 125.172 195.927 125.765 193.62 125.76ZM183.37 105.63C182.024 107.661 181.31 110.045 181.319 112.482C181.328 114.918 182.059 117.297 183.42 119.318C184.781 121.339 186.711 122.911 188.965 123.835C191.22 124.76 193.697 124.995 196.085 124.511C198.473 124.027 200.664 122.846 202.381 121.118C204.098 119.389 205.263 117.19 205.731 114.799C206.198 112.407 205.945 109.931 205.006 107.683C204.066 105.436 202.48 103.517 200.45 102.17C199.104 101.269 197.592 100.643 196.002 100.329C194.413 100.015 192.777 100.019 191.189 100.341C189.601 100.663 188.093 101.296 186.751 102.204C185.408 103.111 184.26 104.276 183.37 105.63V105.63Z" fill="white"/>
<path d="M384.83 154.65L369.13 152.53L379.51 74.72L349.23 70.64L275.78 138.26L271.92 167.19L335.21 175.73L332.05 199.4L362.33 203.48L365.49 179.82L381.19 181.94L384.83 154.65ZM305.41 143.93L344.17 108.6L338.85 148.44L305.41 143.93Z" fill="#B0BEC5"/>
<path d="M353.131 202.74H353.001C352.871 202.716 352.756 202.641 352.681 202.532C352.606 202.424 352.577 202.29 352.601 202.16L376.001 74.22C376.027 74.0915 376.102 73.9783 376.211 73.9038C376.319 73.8293 376.451 73.7993 376.581 73.82C376.71 73.8443 376.825 73.9189 376.9 74.0276C376.975 74.1362 377.004 74.2701 376.981 74.4L353.631 202.33C353.608 202.446 353.545 202.55 353.454 202.624C353.363 202.699 353.249 202.74 353.131 202.74V202.74Z" fill="#4E5558"/>
<path d="M373.83 76.37C373.822 76.5875 373.728 76.7929 373.569 76.9411C373.409 77.0892 373.197 77.168 372.98 77.16C372.763 77.1521 372.557 77.058 372.409 76.8986C372.261 76.7392 372.182 76.5275 372.19 76.31C372.198 76.0925 372.292 75.8871 372.451 75.739C372.611 75.5908 372.823 75.5121 373.04 75.52C373.257 75.528 373.463 75.622 373.611 75.7814C373.759 75.9408 373.838 76.1525 373.83 76.37Z" fill="#4E5558"/>
<path d="M370.501 93.67C370.495 93.832 370.441 93.9886 370.346 94.12C370.251 94.2514 370.119 94.3516 369.967 94.4081C369.815 94.4646 369.65 94.4747 369.492 94.4373C369.334 94.3998 369.191 94.3164 369.081 94.1977C368.97 94.0789 368.898 93.9301 368.872 93.77C368.846 93.61 368.868 93.4459 368.936 93.2984C369.003 93.151 369.113 93.0268 369.251 92.9417C369.389 92.8565 369.549 92.8142 369.711 92.82C369.818 92.8239 369.924 92.8489 370.022 92.8937C370.12 92.9386 370.209 93.0023 370.282 93.0812C370.355 93.1602 370.412 93.2528 370.45 93.3538C370.488 93.4548 370.505 93.5623 370.501 93.67Z" fill="#4E5558"/>
<path d="M367.171 111C367.167 111.108 367.142 111.214 367.097 111.312C367.052 111.41 366.989 111.498 366.91 111.571C366.831 111.645 366.738 111.702 366.637 111.739C366.536 111.777 366.429 111.794 366.321 111.79C366.214 111.787 366.108 111.764 366.01 111.72C365.912 111.676 365.824 111.613 365.75 111.535C365.677 111.457 365.619 111.365 365.582 111.265C365.544 111.164 365.527 111.057 365.531 110.95C365.533 110.841 365.558 110.734 365.602 110.635C365.646 110.536 365.71 110.447 365.789 110.372C365.868 110.298 365.961 110.24 366.062 110.202C366.164 110.164 366.272 110.146 366.381 110.15C366.597 110.16 366.801 110.255 366.949 110.414C367.097 110.573 367.176 110.783 367.171 111Z" fill="#4E5558"/>
<path d="M360.611 129C360.588 129.201 360.493 129.386 360.342 129.521C360.192 129.655 359.997 129.73 359.796 129.73C359.594 129.73 359.399 129.655 359.249 129.521C359.098 129.386 359.003 129.201 358.981 129C358.968 128.885 358.979 128.769 359.015 128.66C359.05 128.55 359.108 128.449 359.185 128.363C359.262 128.277 359.356 128.208 359.461 128.161C359.566 128.114 359.68 128.09 359.796 128.09C359.911 128.09 360.025 128.114 360.13 128.161C360.235 128.208 360.33 128.277 360.407 128.363C360.483 128.449 360.541 128.55 360.577 128.66C360.612 128.769 360.623 128.885 360.611 129V129Z" fill="#4E5558"/>
<path d="M360.501 145.57C360.498 145.678 360.474 145.785 360.43 145.883C360.385 145.982 360.322 146.071 360.242 146.144C360.163 146.218 360.07 146.275 359.968 146.312C359.867 146.349 359.759 146.365 359.651 146.36C359.489 146.354 359.332 146.3 359.201 146.205C359.069 146.11 358.969 145.978 358.913 145.826C358.856 145.674 358.846 145.509 358.883 145.351C358.921 145.193 359.004 145.05 359.123 144.94C359.242 144.83 359.391 144.757 359.551 144.731C359.711 144.705 359.875 144.727 360.022 144.795C360.17 144.862 360.294 144.972 360.379 145.11C360.464 145.248 360.507 145.408 360.501 145.57Z" fill="#4E5558"/>
<path d="M357.17 162.87C357.166 163.033 357.114 163.19 357.02 163.323C356.926 163.456 356.795 163.558 356.643 163.616C356.491 163.674 356.325 163.685 356.167 163.649C356.008 163.612 355.864 163.53 355.753 163.411C355.642 163.293 355.568 163.144 355.541 162.984C355.515 162.823 355.536 162.659 355.604 162.511C355.671 162.362 355.781 162.238 355.919 162.152C356.057 162.067 356.218 162.024 356.38 162.03C356.596 162.038 356.8 162.13 356.948 162.288C357.096 162.445 357.175 162.654 357.17 162.87V162.87Z" fill="#4E5558"/>
<path d="M353.841 180.17C353.833 180.388 353.739 180.595 353.58 180.745C353.421 180.894 353.209 180.975 352.991 180.97C352.883 180.966 352.777 180.941 352.679 180.896C352.581 180.851 352.493 180.788 352.42 180.709C352.346 180.63 352.289 180.537 352.252 180.436C352.214 180.335 352.197 180.228 352.201 180.12C352.204 180.012 352.228 179.906 352.273 179.808C352.317 179.71 352.38 179.621 352.459 179.547C352.537 179.474 352.629 179.416 352.73 179.378C352.831 179.34 352.938 179.322 353.046 179.325C353.153 179.328 353.259 179.353 353.358 179.397C353.456 179.441 353.544 179.504 353.618 179.583C353.692 179.661 353.75 179.754 353.788 179.854C353.826 179.955 353.844 180.062 353.841 180.17V180.17Z" fill="#4E5558"/>
<path d="M350.501 197.48C350.495 197.642 350.441 197.799 350.346 197.93C350.251 198.061 350.119 198.162 349.967 198.218C349.815 198.275 349.65 198.285 349.492 198.247C349.334 198.21 349.191 198.127 349.081 198.008C348.97 197.889 348.898 197.74 348.872 197.58C348.846 197.42 348.868 197.256 348.936 197.108C349.003 196.961 349.113 196.837 349.251 196.752C349.389 196.667 349.549 196.624 349.711 196.63C349.819 196.633 349.925 196.657 350.024 196.701C350.123 196.745 350.211 196.809 350.285 196.888C350.359 196.968 350.416 197.061 350.453 197.162C350.49 197.264 350.506 197.372 350.501 197.48V197.48Z" fill="#4E5558"/>
<path d="M359.79 129.45C359.678 129.45 359.569 129.411 359.481 129.34C359.394 129.269 359.333 129.17 359.31 129.06C359.296 128.996 359.294 128.929 359.305 128.864C359.316 128.799 359.34 128.737 359.375 128.681C359.411 128.625 359.457 128.577 359.511 128.539C359.565 128.501 359.626 128.474 359.69 128.46L362.17 127.93C362.236 127.915 362.303 127.914 362.368 127.926C362.434 127.937 362.497 127.962 362.553 127.999C362.609 128.035 362.657 128.082 362.694 128.137C362.731 128.193 362.757 128.255 362.77 128.32C362.784 128.384 362.784 128.451 362.771 128.515C362.759 128.58 362.734 128.641 362.698 128.696C362.661 128.751 362.615 128.798 362.56 128.834C362.506 128.871 362.445 128.897 362.38 128.91L359.9 129.44L359.79 129.45Z" fill="#4E5558"/>
<path d="M368.08 120.24C366.9 123.3 365.899 126.425 365.08 129.6C364.33 133.13 364.29 141.03 364.29 141.03" fill="#4E5558"/>
<path d="M364.29 141.53C364.157 141.525 364.032 141.469 363.939 141.374C363.846 141.28 363.792 141.153 363.79 141.02C363.79 140.7 363.85 133.02 364.6 129.5C365.414 126.297 366.416 123.145 367.6 120.06C367.62 119.994 367.653 119.933 367.698 119.881C367.743 119.829 367.798 119.786 367.859 119.756C367.921 119.726 367.989 119.709 368.057 119.706C368.126 119.703 368.195 119.714 368.259 119.739C368.323 119.764 368.381 119.802 368.43 119.85C368.479 119.899 368.517 119.957 368.543 120.02C368.568 120.084 368.58 120.153 368.578 120.222C368.576 120.29 368.56 120.358 368.53 120.42C367.352 123.456 366.35 126.558 365.53 129.71C364.8 133.15 364.75 140.95 364.74 141.03C364.741 141.154 364.695 141.275 364.612 141.367C364.528 141.459 364.414 141.518 364.29 141.53Z" fill="#4E5558"/>
<path d="M181.45 227.84C182.84 205.44 180.29 164.71 222.4 170.11C267.53 175.88 254.62 228.66 254.62 228.66L181.45 227.84Z" fill="#4E5558"/>
<path d="M210.51 214.38C220.661 214.38 228.89 206.151 228.89 196C228.89 185.849 220.661 177.62 210.51 177.62C200.359 177.62 192.13 185.849 192.13 196C192.13 206.151 200.359 214.38 210.51 214.38Z" fill="white"/>
<path d="M212.93 177.65C204.22 176.17 194.93 182.58 194 189.08L228.51 192.26C227.29 184.85 219.83 178.83 212.93 177.65Z" fill="#4E5558"/>
<path d="M224.58 195.54C224.33 200.35 221.71 204.12 218.73 203.96C215.75 203.8 213.53 199.79 213.73 194.96C213.93 190.13 216.6 186.38 219.58 186.54C222.56 186.7 224.82 190.74 224.58 195.54Z" fill="#4E5558"/>
<path d="M210.51 215.38C206.677 215.38 202.93 214.243 199.743 212.114C196.556 209.984 194.072 206.958 192.605 203.416C191.138 199.875 190.754 195.978 191.502 192.219C192.25 188.46 194.096 185.007 196.806 182.296C199.517 179.586 202.97 177.74 206.729 176.992C210.488 176.245 214.385 176.628 217.926 178.095C221.468 179.562 224.494 182.046 226.624 185.233C228.753 188.42 229.89 192.167 229.89 196C229.885 201.138 227.841 206.065 224.208 209.698C220.574 213.331 215.648 215.375 210.51 215.38V215.38ZM210.51 178.63C207.072 178.63 203.711 179.65 200.853 181.56C197.995 183.47 195.767 186.185 194.452 189.361C193.137 192.538 192.793 196.033 193.465 199.404C194.136 202.776 195.792 205.873 198.224 208.303C200.656 210.733 203.753 212.388 207.125 213.057C210.497 213.727 213.992 213.381 217.168 212.064C220.343 210.747 223.057 208.518 224.966 205.659C226.874 202.799 227.892 199.438 227.89 196C227.885 191.393 226.051 186.977 222.793 183.72C219.534 180.463 215.117 178.633 210.51 178.63V178.63Z" fill="#B0BEC5"/>
<path opacity="0.3" d="M249.49 227.28H249.37C249.305 227.266 249.245 227.239 249.191 227.201C249.137 227.163 249.092 227.115 249.057 227.059C249.023 227.003 249 226.94 248.99 226.875C248.98 226.81 248.983 226.744 249 226.68C249 226.55 252.22 212.99 248.91 199.28C248.878 199.147 248.9 199.008 248.971 198.891C249.043 198.775 249.157 198.692 249.29 198.66C249.422 198.628 249.562 198.65 249.678 198.722C249.795 198.793 249.878 198.907 249.91 199.04C253.28 213.04 250.03 226.78 250 226.91C249.97 227.021 249.903 227.118 249.81 227.185C249.717 227.253 249.604 227.286 249.49 227.28V227.28Z" fill="white"/>
<path opacity="0.3" d="M246.7 191.76C246.604 191.759 246.51 191.731 246.429 191.68C246.348 191.629 246.283 191.556 246.24 191.47C244.997 188.723 243.404 186.148 241.5 183.81C241.417 183.708 241.378 183.577 241.391 183.446C241.404 183.315 241.469 183.194 241.57 183.11C241.621 183.067 241.68 183.035 241.743 183.016C241.807 182.996 241.874 182.99 241.94 182.996C242.006 183.003 242.07 183.022 242.128 183.054C242.187 183.085 242.238 183.128 242.28 183.18C244.231 185.586 245.868 188.231 247.15 191.05C247.179 191.109 247.195 191.173 247.198 191.238C247.202 191.304 247.192 191.369 247.169 191.431C247.147 191.492 247.113 191.549 247.068 191.597C247.023 191.645 246.97 191.683 246.91 191.71C246.844 191.741 246.773 191.758 246.7 191.76V191.76Z" fill="white"/>
<path d="M87.73 332.92H87.36C86.0339 332.883 84.7769 332.32 83.8655 331.357C82.9541 330.393 82.4629 329.106 82.5 327.78C82.5371 326.454 83.0995 325.197 84.0635 324.285C85.0274 323.374 86.3139 322.883 87.64 322.92H87.73C90.62 322.92 97.57 319.41 112.11 296.49C112.496 295.881 113.009 295.363 113.614 294.971C114.219 294.579 114.901 294.323 115.615 294.219C116.328 294.116 117.055 294.168 117.746 294.372C118.438 294.575 119.077 294.926 119.62 295.4C131.039 305.216 143.492 313.76 156.76 320.88C157.374 321.159 157.925 321.56 158.38 322.058C158.835 322.556 159.185 323.14 159.408 323.777C159.632 324.414 159.724 325.089 159.679 325.762C159.634 326.435 159.454 327.092 159.149 327.693C158.844 328.295 158.42 328.829 157.903 329.262C157.387 329.696 156.787 330.02 156.142 330.216C155.496 330.412 154.818 330.475 154.147 330.402C153.477 330.329 152.828 330.121 152.24 329.79C139.909 323.237 128.252 315.487 117.44 306.65C105.25 325 96.21 332.92 87.73 332.92Z" fill="#4E5558"/>
<path d="M118.671 294.5H118.241C117.455 294.386 116.746 293.965 116.27 293.33C115.794 292.694 115.589 291.896 115.701 291.11C116.411 286.11 115.531 267.48 109.221 252.98C108.941 252.339 108.893 251.621 109.087 250.949C109.28 250.277 109.703 249.694 110.281 249.3C123.981 239.97 153.161 238.85 154.401 238.81C154.794 238.797 155.187 238.861 155.556 239C155.925 239.139 156.263 239.349 156.551 239.618C156.839 239.887 157.071 240.211 157.234 240.57C157.397 240.929 157.487 241.316 157.501 241.71C157.514 242.104 157.449 242.497 157.31 242.866C157.172 243.235 156.962 243.573 156.693 243.861C156.423 244.148 156.1 244.38 155.741 244.543C155.382 244.706 154.994 244.797 154.601 244.81C154.331 244.81 128.821 245.81 115.721 253.01C121.301 267.45 122.571 285.44 121.641 291.95C121.533 292.66 121.174 293.308 120.629 293.776C120.084 294.244 119.389 294.501 118.671 294.5Z" fill="#4E5558"/>
<path d="M123.71 290.62C121.71 285.91 112.71 286.44 107.44 290.48C104.62 292.63 100.8 299.12 100.44 301.48C100.32 302.041 100.338 302.622 100.492 303.175C100.647 303.727 100.933 304.233 101.326 304.65C101.72 305.068 102.209 305.383 102.751 305.569C103.294 305.755 103.873 305.807 104.44 305.72C107.89 305.42 112.62 300.41 112.62 300.41C109.47 303.5 113.54 305.68 119.62 301.21C122.94 298.72 125.94 295.89 123.71 290.62Z" fill="#B0BEC5"/>
<path d="M295.711 229.16C295.664 229.17 295.617 229.17 295.571 229.16C295.507 229.143 295.447 229.113 295.395 229.072C295.343 229.031 295.3 228.98 295.268 228.923C295.237 228.865 295.217 228.801 295.21 228.735C295.204 228.669 295.211 228.603 295.231 228.54C296.561 223.9 298.011 221.07 299.921 219.54C299.621 218.465 299.677 217.321 300.081 216.28C300.547 215.065 301.369 214.019 302.441 213.28C302.149 212.965 301.942 212.582 301.839 212.166C301.736 211.75 301.74 211.314 301.851 210.9C302.213 209.647 302.962 208.541 303.991 207.74C303.62 207.325 303.416 206.787 303.421 206.23C303.421 203.23 308.931 198.71 315.181 197.85C315.313 197.831 315.448 197.866 315.555 197.947C315.661 198.028 315.732 198.147 315.751 198.28C315.769 198.413 315.734 198.547 315.654 198.654C315.573 198.761 315.453 198.831 315.321 198.85C309.381 199.66 304.401 203.96 304.421 206.23C304.418 206.568 304.547 206.895 304.781 207.14C306.126 206.228 307.639 205.593 309.232 205.272C310.826 204.951 312.467 204.95 314.061 205.27C317.131 205.86 318.381 206.51 318.241 207.44C317.961 209.19 311.431 209.56 307.051 209.04C306.266 208.969 305.502 208.748 304.801 208.39C303.858 209.061 303.156 210.019 302.801 211.12C302.715 211.411 302.715 211.722 302.802 212.013C302.889 212.304 303.059 212.563 303.291 212.76C305.151 211.76 307.761 211.4 311.211 212.16C315.741 213.16 315.911 213.71 316.021 214.04C316.056 214.157 316.059 214.281 316.029 214.399C315.999 214.517 315.937 214.624 315.851 214.71C314.901 215.71 307.951 215.24 304.461 214.38C304.039 214.284 303.632 214.133 303.251 213.93C302.218 214.558 301.422 215.511 300.991 216.64C300.702 217.37 300.622 218.167 300.761 218.94C300.939 218.834 301.122 218.737 301.311 218.65C303.381 217.65 305.881 217.83 308.971 219.15C310.971 220.02 311.971 220.8 312.071 221.59C312.075 221.793 312.024 221.993 311.924 222.169C311.823 222.345 311.677 222.491 311.501 222.59C309.971 223.59 304.631 223.45 301.851 221.97C301.211 221.623 300.679 221.108 300.311 220.48C298.681 221.98 297.361 224.65 296.161 228.84C296.124 228.931 296.062 229.009 295.983 229.066C295.903 229.123 295.808 229.156 295.711 229.16V229.16ZM301.131 219.83C301.409 220.347 301.833 220.772 302.351 221.05C304.611 222.25 309.051 222.52 310.711 221.85C311.051 221.71 311.101 221.6 311.101 221.6C311.101 221.6 311.051 221.04 308.601 219.99C305.801 218.79 303.601 218.62 301.771 219.47C301.55 219.576 301.336 219.697 301.131 219.83V219.83ZM304.471 213.26L304.721 213.33C307.977 214.081 311.328 214.333 314.661 214.08C313.479 213.642 312.261 213.307 311.021 213.08C308.867 212.497 306.589 212.559 304.471 213.26V213.26ZM305.731 207.64C306.192 207.806 306.672 207.913 307.161 207.96C312.161 208.55 316.551 207.86 317.161 207.23C316.991 207.08 316.321 206.65 313.841 206.18C311.05 205.623 308.152 206.145 305.731 207.64V207.64Z" fill="#4E5558"/>
<path d="M165.53 331.25C166.19 331.04 165.97 330.4 165.23 330.4H151.69C125.91 327.67 107.9 331.33 119.25 332.19C130.6 333.05 118.45 332.87 110.16 336.01C101.87 339.15 171.81 339.94 178.16 336.01C184 332.39 156.39 334.18 165.53 331.25Z" fill="#4E5558"/>
<path d="M262.47 335.24L144.67 331.33L139.78 217.11L278.89 220.22L262.47 335.24Z" fill="#B0BEC5"/>
<path d="M181.45 333.05C181.324 333.05 181.202 333.003 181.11 332.918C181.017 332.833 180.96 332.716 180.95 332.59L171.51 217.87C171.501 217.738 171.545 217.608 171.631 217.507C171.716 217.406 171.838 217.343 171.97 217.33C172.101 217.324 172.23 217.368 172.33 217.454C172.431 217.539 172.495 217.659 172.51 217.79L182 332.51C182.005 332.576 181.998 332.642 181.978 332.705C181.957 332.767 181.925 332.826 181.882 332.876C181.839 332.926 181.787 332.967 181.728 332.997C181.67 333.027 181.606 333.045 181.54 333.05H181.45Z" fill="#4E5558"/>
<path d="M262.47 335.24L294.13 330.42L304.1 224.21L278.89 220.22L262.47 335.24Z" fill="#B0BEC5"/>
<path opacity="0.2" d="M262.47 335.24L294.13 330.42L304.1 224.21L278.89 220.22L262.47 335.24Z" fill="black"/>
<path d="M154.73 309.32L151.83 241.45C151.759 239.773 152.032 238.1 152.633 236.533C153.234 234.966 154.15 233.539 155.325 232.34C156.499 231.142 157.907 230.196 159.461 229.563C161.015 228.93 162.683 228.623 164.36 228.66L252.421 230.66C254.154 230.699 255.86 231.106 257.426 231.852C258.991 232.599 260.381 233.669 261.502 234.992C262.624 236.315 263.452 237.861 263.933 239.527C264.414 241.194 264.535 242.943 264.29 244.66L254.53 313C254.108 315.993 252.596 318.725 250.284 320.672C247.971 322.619 245.022 323.644 242 323.55L166.61 321.05C163.516 320.955 160.571 319.693 158.368 317.517C156.165 315.342 154.865 312.413 154.73 309.32V309.32Z" fill="#4E5558"/>
<path d="M164.25 249.49L177.87 249.92L177.76 253.43L169.23 253.16L169.15 255.78L177.06 256.03L176.95 259.39L169.04 259.13L168.94 262.38L177.71 262.66L177.59 266.38L163.72 265.94L164.25 249.49Z" fill="white"/>
<path d="M180.4 266.47L180.92 250.02L189.4 250.29C190.616 250.284 191.826 250.459 192.99 250.81C193.816 251.086 194.521 251.637 194.99 252.37C195.338 252.904 195.572 253.504 195.677 254.132C195.783 254.76 195.758 255.404 195.604 256.022C195.45 256.64 195.171 257.22 194.783 257.726C194.395 258.231 193.908 258.651 193.35 258.96C192.782 259.253 192.171 259.455 191.54 259.56C192.005 259.71 192.447 259.925 192.85 260.2C193.142 260.471 193.404 260.773 193.63 261.1C193.888 261.411 194.116 261.746 194.31 262.1L196.62 266.95L190.88 266.76L188.32 261.65C188.117 261.162 187.818 260.72 187.44 260.35C187.081 260.09 186.653 259.944 186.21 259.93H185.76L185.55 266.6L180.4 266.47ZM185.82 256.85L187.96 256.92C188.415 256.892 188.866 256.829 189.31 256.73C189.645 256.679 189.949 256.504 190.16 256.24C190.377 255.973 190.5 255.643 190.51 255.3C190.529 255.071 190.497 254.841 190.416 254.627C190.334 254.412 190.206 254.219 190.04 254.06C189.482 253.699 188.823 253.528 188.16 253.57L185.92 253.5L185.82 256.85Z" fill="white"/>
<path d="M198.28 267L198.8 250.55L207.27 250.82C208.486 250.813 209.696 250.988 210.86 251.34C211.687 251.613 212.394 252.165 212.86 252.9C213.368 253.701 213.606 254.644 213.54 255.59C213.543 256.388 213.33 257.172 212.923 257.859C212.517 258.545 211.932 259.109 211.23 259.49C210.661 259.781 210.051 259.983 209.42 260.09C209.882 260.239 210.32 260.455 210.72 260.73C211.019 260.993 211.285 261.292 211.51 261.62C211.766 261.933 211.993 262.267 212.19 262.62L214.5 267.46L208.76 267.28L206.2 262.17C205.996 261.683 205.697 261.241 205.32 260.87C204.963 260.6 204.528 260.453 204.08 260.45H203.64L203.42 267.13L198.28 267ZM203.69 257.38L205.84 257.44C206.295 257.423 206.747 257.362 207.19 257.26C207.523 257.211 207.824 257.035 208.03 256.77C208.254 256.508 208.378 256.175 208.38 255.83C208.402 255.602 208.372 255.372 208.292 255.157C208.213 254.943 208.085 254.749 207.92 254.59C207.363 254.22 206.697 254.048 206.03 254.1L203.8 254.03L203.69 257.38Z" fill="white"/>
<path d="M215.321 259.36C215.243 258.212 215.421 257.061 215.842 255.99C216.262 254.92 216.915 253.955 217.752 253.166C218.59 252.377 219.592 251.784 220.686 251.428C221.78 251.073 222.939 250.964 224.081 251.11C225.232 251.072 226.38 251.266 227.455 251.68C228.531 252.094 229.512 252.719 230.341 253.52C231.08 254.372 231.639 255.365 231.983 256.44C232.327 257.514 232.448 258.647 232.341 259.77C232.349 261.404 231.965 263.016 231.221 264.47C230.546 265.66 229.538 266.627 228.321 267.25C226.886 267.936 225.297 268.239 223.711 268.13C222.128 268.143 220.563 267.802 219.131 267.13C217.911 266.468 216.915 265.459 216.271 264.23C215.514 262.724 215.186 261.04 215.321 259.36V259.36ZM220.401 259.54C220.251 260.801 220.536 262.074 221.211 263.15C221.526 263.502 221.909 263.787 222.337 263.988C222.764 264.188 223.228 264.301 223.7 264.319C224.172 264.337 224.643 264.259 225.085 264.091C225.527 263.923 225.93 263.667 226.271 263.34C227.012 262.217 227.363 260.882 227.271 259.54C227.405 258.335 227.111 257.121 226.441 256.11C226.137 255.761 225.763 255.481 225.342 255.289C224.92 255.098 224.463 254.999 224.001 255C223.534 254.966 223.066 255.039 222.631 255.212C222.196 255.385 221.806 255.655 221.491 256C220.733 257.021 220.349 258.27 220.401 259.54V259.54Z" fill="white"/>
<path d="M234.91 268.21L235.43 251.75L243.9 252.02C245.116 252.018 246.325 252.193 247.49 252.54C248.313 252.821 249.018 253.37 249.49 254.1C249.995 254.902 250.233 255.844 250.17 256.79C250.175 257.59 249.963 258.376 249.556 259.064C249.149 259.753 248.563 260.318 247.86 260.7C247.288 260.983 246.679 261.182 246.05 261.29C246.513 261.442 246.951 261.661 247.35 261.94C247.649 262.203 247.914 262.502 248.14 262.83C248.398 263.141 248.625 263.476 248.82 263.83L251.13 268.68L245.39 268.5L242.83 263.38C242.627 262.895 242.327 262.456 241.95 262.09C241.591 261.822 241.158 261.671 240.71 261.66H240.27L240.05 268.34L234.91 268.21ZM240.32 258.58L242.47 258.65C242.925 258.633 243.377 258.572 243.82 258.47C244.151 258.417 244.451 258.242 244.66 257.98C244.896 257.701 245.021 257.345 245.01 256.98C245.032 256.754 245.002 256.525 244.922 256.312C244.842 256.099 244.715 255.907 244.55 255.75C243.992 255.38 243.327 255.208 242.66 255.26L240.43 255.19L240.32 258.58Z" fill="white"/>
<path d="M243 296.16C242.812 296.164 242.626 296.127 242.453 296.053C242.281 295.979 242.126 295.869 242 295.73L233.44 286.36L224.2 294.8C223.944 295.035 223.605 295.158 223.258 295.143C222.911 295.128 222.585 294.976 222.35 294.72L213.79 285.35L204.55 293.79C204.294 294.025 203.955 294.148 203.608 294.133C203.261 294.118 202.935 293.966 202.7 293.71L194.13 284.34L184.9 292.78C184.765 292.902 184.607 292.995 184.435 293.054C184.263 293.112 184.081 293.135 183.9 293.12C183.552 293.099 183.226 292.945 182.99 292.69L174.43 283.33L165.2 291.76C164.942 291.995 164.602 292.119 164.253 292.104C163.905 292.089 163.576 291.936 163.34 291.68C163.223 291.553 163.133 291.404 163.074 291.242C163.015 291.08 162.989 290.908 162.998 290.736C163.006 290.564 163.049 290.395 163.123 290.24C163.197 290.084 163.301 289.945 163.43 289.83L173.63 280.5C173.888 280.265 174.228 280.141 174.576 280.156C174.925 280.171 175.253 280.324 175.49 280.58L184.05 289.95L193.28 281.51C193.542 281.28 193.881 281.158 194.23 281.17C194.578 281.189 194.905 281.343 195.14 281.6L203.7 290.97L212.94 282.53C213.066 282.413 213.214 282.321 213.376 282.262C213.538 282.202 213.709 282.175 213.882 282.183C214.054 282.19 214.223 282.232 214.379 282.305C214.535 282.379 214.674 282.482 214.79 282.61L223.35 291.98L232.59 283.54C232.846 283.305 233.185 283.182 233.531 283.197C233.878 283.212 234.205 283.364 234.44 283.62L244 294C244.171 294.191 244.282 294.427 244.321 294.681C244.36 294.934 244.324 295.193 244.218 295.426C244.112 295.66 243.94 295.857 243.724 295.994C243.508 296.132 243.256 296.203 243 296.2V296.16Z" fill="white"/>
<path d="M84.7502 337.67L78.4902 334.68L72.9102 307.51L75.9402 304.18L84.7502 337.67Z" fill="#B0BEC5"/>
<path d="M84.7504 337.67L93.0604 332.81L85.9404 310.43L75.9404 304.18L84.7504 337.67Z" fill="#B0BEC5"/>
<path opacity="0.2" d="M84.7504 337.67L93.0604 332.81L85.9404 310.43L75.9404 304.18L84.7504 337.67Z" fill="black"/>
<path d="M221 342.61H220.31C218.984 342.574 217.727 342.013 216.814 341.05C215.902 340.087 215.409 338.801 215.445 337.475C215.481 336.149 216.042 334.891 217.005 333.979C217.968 333.067 219.254 332.574 220.58 332.61C228.28 332.86 244.58 328.13 253.9 319.09C254.463 318.538 255.148 318.127 255.9 317.89C271.69 313.15 277.56 322.72 277.8 323.13L269.2 328.22C269.23 328.284 269.267 328.344 269.31 328.4C269.22 328.27 266.98 325.4 259.86 327.16C248.17 337.82 230.23 342.61 221 342.61Z" fill="#4E5558"/>
<path d="M220.39 349.25L202.18 348.11L200.75 314.53L225.22 315.44L220.39 349.25Z" fill="#B0BEC5"/>
<path d="M220.391 349.25L224.651 345.01L227.291 324.08L225.221 315.44L220.391 349.25Z" fill="#B0BEC5"/>
<path opacity="0.2" d="M220.391 349.25L224.651 345.01L227.291 324.08L225.221 315.44L220.391 349.25Z" fill="black"/>
<path d="M325.91 336.54C325.257 336.539 324.621 336.325 324.1 335.93C313.7 328.03 299.65 314 294.26 300.47C294.18 300.274 294.122 300.069 294.09 299.86C291.46 284.22 288.95 251.31 288.84 249.92C288.811 249.526 288.859 249.13 288.983 248.755C289.106 248.38 289.302 248.032 289.56 247.733C290.08 247.128 290.82 246.755 291.615 246.695C292.411 246.635 293.198 246.894 293.803 247.415C294.407 247.935 294.781 248.674 294.84 249.47C294.84 249.8 297.41 283.03 299.97 298.54C305.35 311.7 319.97 325.21 327.75 331.15C328.251 331.53 328.62 332.058 328.805 332.659C328.99 333.26 328.981 333.904 328.78 334.5C328.578 335.096 328.195 335.613 327.684 335.979C327.173 336.345 326.559 336.541 325.93 336.54H325.91Z" fill="#4E5558"/>
<path d="M339.78 338.05C337.46 338.05 334.83 337 331.96 334.93C331.316 334.463 330.883 333.76 330.757 332.974C330.632 332.188 330.823 331.384 331.29 330.74C331.757 330.096 332.461 329.663 333.246 329.537C334.032 329.412 334.836 329.603 335.48 330.07C337.96 331.86 339.31 332.07 339.78 332.07C340.576 332.07 341.339 332.386 341.901 332.949C342.464 333.511 342.78 334.274 342.78 335.07C342.78 335.866 342.464 336.629 341.901 337.191C341.339 337.754 340.576 338.07 339.78 338.07V338.05Z" fill="#4E5558"/>
<path d="M332.801 334.84C336.011 325.31 349.171 327.19 353.711 328.61C357.589 329.736 361.308 331.349 364.781 333.41C367.231 335.01 367.271 337.7 364.001 339.23C360.001 341.11 349.841 339.44 349.841 339.44C355.081 341.73 349.841 345.44 340.631 341.8C337.641 340.62 331.671 338.34 332.801 334.84Z" fill="#B0BEC5"/>
<path d="M300.86 254C299.67 262.1 292.96 268.07 287.5 267.27C282.04 266.47 281.82 259.27 283.01 251.13C284.2 242.99 286.36 237.13 291.82 237.93C297.28 238.73 302.05 245.93 300.86 254Z" fill="#4E5558"/>
<path d="M168.881 221.7C169.333 221.7 169.701 221.333 169.701 220.88C169.701 220.427 169.333 220.06 168.881 220.06C168.428 220.06 168.061 220.427 168.061 220.88C168.061 221.333 168.428 221.7 168.881 221.7Z" fill="#4E5558"/>
<path d="M177.21 226.78C177.21 226.942 177.162 227.101 177.072 227.236C176.982 227.37 176.854 227.476 176.704 227.538C176.554 227.6 176.389 227.616 176.23 227.584C176.071 227.553 175.925 227.475 175.81 227.36C175.696 227.245 175.618 227.099 175.586 226.94C175.554 226.781 175.571 226.616 175.633 226.466C175.695 226.316 175.8 226.188 175.935 226.098C176.07 226.008 176.228 225.96 176.39 225.96C176.608 225.96 176.816 226.046 176.97 226.2C177.124 226.354 177.21 226.563 177.21 226.78Z" fill="#4E5558"/>
<path d="M178.13 323.68C178.13 323.842 178.082 324.001 177.992 324.136C177.902 324.27 177.774 324.376 177.624 324.438C177.474 324.5 177.309 324.516 177.15 324.484C176.991 324.453 176.845 324.375 176.73 324.26C176.616 324.145 176.538 323.999 176.506 323.84C176.474 323.681 176.491 323.516 176.553 323.366C176.615 323.216 176.72 323.088 176.855 322.998C176.99 322.908 177.148 322.86 177.31 322.86C177.528 322.86 177.736 322.946 177.89 323.1C178.044 323.254 178.13 323.463 178.13 323.68V323.68Z" fill="#4E5558"/>
<path d="M185.64 329.59C185.64 329.752 185.592 329.911 185.502 330.046C185.412 330.18 185.284 330.286 185.134 330.348C184.984 330.41 184.819 330.426 184.66 330.394C184.501 330.363 184.355 330.285 184.24 330.17C184.125 330.055 184.047 329.909 184.016 329.75C183.984 329.591 184 329.426 184.062 329.276C184.124 329.126 184.23 328.998 184.364 328.908C184.499 328.818 184.658 328.77 184.82 328.77C185.037 328.77 185.246 328.856 185.4 329.01C185.554 329.164 185.64 329.373 185.64 329.59Z" fill="#4E5558"/>
<path d="M41.51 339.42C40.0704 339.353 38.6643 338.963 37.3955 338.279C36.1268 337.595 35.0279 336.635 34.18 335.47C34.1385 335.416 34.1082 335.355 34.0912 335.289C34.0742 335.224 34.0707 335.155 34.081 335.088C34.0912 335.021 34.115 334.957 34.1509 334.899C34.1869 334.842 34.2341 334.792 34.2898 334.753C34.3455 334.714 34.4085 334.687 34.475 334.674C34.5415 334.66 34.61 334.66 34.6765 334.674C34.7429 334.688 34.8059 334.715 34.8615 334.754C34.9171 334.793 34.9642 334.842 35 334.9C36.87 337.6 41 339.03 42.8 338.18C42.9803 338.104 43.141 337.987 43.27 337.84C42.3605 337.44 41.5636 336.822 40.9497 336.04C40.3357 335.259 39.9237 334.338 39.75 333.36C39.52 332.09 39.34 330.36 40.38 330.14C41.82 329.82 43.7 333.29 44.38 335.92C44.5032 336.355 44.5472 336.809 44.51 337.26C45.0868 337.432 45.6935 337.48 46.29 337.4C46.5588 337.379 46.8204 337.303 47.058 337.175C47.2956 337.048 47.504 336.872 47.67 336.66C47.0119 336.163 46.466 335.534 46.0679 334.812C45.6699 334.089 45.4286 333.292 45.36 332.47C44.98 329.73 45.27 329.26 45.57 329.02C45.6672 328.945 45.7832 328.899 45.9051 328.887C46.027 328.875 46.1498 328.897 46.26 328.95C47.33 329.4 48.62 333.28 48.87 335.48C48.9 335.709 48.9 335.941 48.87 336.17C49.3011 336.336 49.7582 336.424 50.22 336.43C51.068 336.463 51.9067 336.244 52.63 335.8C52.49 335.71 52.36 335.61 52.23 335.51C51.23 334.62 50.77 333.2 50.95 331.18C51.09 329.61 51.44 328.75 52.07 328.48C52.2733 328.398 52.4958 328.378 52.7107 328.42C52.9255 328.463 53.1233 328.567 53.28 328.72C53.9551 329.465 54.4595 330.349 54.7583 331.309C55.0571 332.269 55.143 333.283 55.01 334.28C54.9232 334.695 54.7494 335.087 54.5 335.43C56.34 335.75 58.92 335.23 61.15 334.68C61.2157 334.664 61.2838 334.662 61.3505 334.672C61.4172 334.683 61.4812 334.706 61.5387 334.742C61.5963 334.777 61.6464 334.823 61.686 334.878C61.7257 334.932 61.7543 334.994 61.77 335.06C61.7858 335.126 61.7885 335.194 61.7779 335.26C61.7673 335.327 61.7437 335.391 61.7084 335.449C61.6731 335.506 61.6269 335.556 61.5722 335.596C61.5176 335.636 61.4557 335.664 61.39 335.68C58.68 336.35 55.76 336.9 53.7 336.3C52.6945 337.064 51.4631 337.473 50.2 337.46C49.6395 337.453 49.0846 337.348 48.56 337.15C48.3274 337.51 48.0153 337.811 47.6477 338.032C47.2802 338.252 46.867 338.385 46.44 338.42C45.6883 338.517 44.9247 338.452 44.2 338.23C43.9667 338.623 43.6174 338.934 43.2 339.12C42.6637 339.336 42.0881 339.439 41.51 339.42V339.42ZM40.65 331.14C40.5117 331.82 40.5391 332.523 40.73 333.19C40.8711 333.99 41.2029 334.743 41.6973 335.388C42.1917 336.032 42.8341 336.547 43.57 336.89C43.556 336.653 43.5158 336.418 43.45 336.19C42.67 333.33 41.17 331.36 40.65 331.14V331.14ZM46.22 330.27C46.2265 330.96 46.2834 331.648 46.39 332.33C46.5003 333.549 47.0388 334.69 47.91 335.55C47.6639 333.704 47.0917 331.916 46.22 330.27V330.27ZM52.51 329.4C52.51 329.4 52.13 329.59 51.99 331.26C51.85 332.93 52.14 334.08 52.92 334.75C53.1046 334.9 53.306 335.027 53.52 335.13C53.783 334.849 53.969 334.504 54.06 334.13C54.2381 332.556 53.8129 330.973 52.87 329.7C52.66 329.44 52.54 329.4 52.51 329.4V329.4Z" fill="#4E5558"/>
<path d="M187.87 346.98L190.58 342.28L187.87 337.58H184.97L186.61 342.28L184.97 346.98H187.87Z" fill="#4E5558"/>
<path d="M185.16 344.73C184.826 344.751 184.491 344.704 184.176 344.591C183.86 344.478 183.572 344.301 183.327 344.072C183.083 343.843 182.888 343.566 182.755 343.259C182.622 342.951 182.554 342.62 182.554 342.285C182.554 341.95 182.622 341.619 182.755 341.311C182.888 341.004 183.083 340.727 183.327 340.498C183.572 340.269 183.86 340.092 184.176 339.979C184.491 339.866 184.826 339.819 185.16 339.84L180.56 338.92L179.33 342.64L181.39 345.78L185.16 344.73Z" fill="#4E5558"/>
<path d="M185.56 337.58H180.13L177.42 342.28L180.13 346.98H185.56L188.27 342.28L185.56 337.58ZM182.85 344.73C182.365 344.732 181.89 344.59 181.486 344.322C181.082 344.054 180.766 343.672 180.579 343.224C180.392 342.777 180.342 342.284 180.436 341.808C180.529 341.332 180.762 340.895 181.104 340.551C181.446 340.207 181.883 339.973 182.358 339.878C182.834 339.782 183.327 339.83 183.775 340.016C184.223 340.201 184.607 340.515 184.876 340.918C185.146 341.321 185.29 341.795 185.29 342.28C185.29 342.928 185.033 343.55 184.576 344.009C184.119 344.468 183.498 344.727 182.85 344.73V344.73Z" fill="#B0BEC5"/>
<path d="M376.89 337.26L374.88 333.77L376.89 330.28H379.04L377.83 333.77L379.04 337.26H376.89Z" fill="#B0BEC5"/>
<path d="M378.9 335.59C379.15 335.609 379.401 335.575 379.637 335.493C379.873 335.41 380.09 335.279 380.274 335.109C380.457 334.938 380.603 334.732 380.703 334.503C380.804 334.273 380.855 334.025 380.855 333.775C380.855 333.525 380.804 333.277 380.703 333.048C380.603 332.818 380.457 332.612 380.274 332.441C380.09 332.271 379.873 332.14 379.637 332.057C379.401 331.975 379.15 331.941 378.9 331.96L382.32 331.28L383.23 334.04L381.71 336.37L378.9 335.59Z" fill="#B0BEC5"/>
<path d="M378.61 330.28H382.61L384.61 333.77L382.61 337.26H378.61L376.61 333.77L378.61 330.28ZM380.61 335.59C380.971 335.592 381.324 335.487 381.624 335.288C381.925 335.089 382.16 334.806 382.299 334.473C382.438 334.141 382.476 333.775 382.407 333.421C382.338 333.067 382.165 332.742 381.911 332.487C381.657 332.231 381.332 332.057 380.979 331.986C380.626 331.915 380.259 331.95 379.926 332.088C379.593 332.225 379.308 332.458 379.108 332.758C378.907 333.057 378.8 333.41 378.8 333.77C378.799 334.009 378.845 334.247 378.936 334.468C379.027 334.689 379.161 334.891 379.33 335.06C379.5 335.229 379.701 335.363 379.922 335.454C380.144 335.545 380.381 335.591 380.62 335.59H380.61Z" fill="#4E5558"/>
<path d="M302 341.9H306.52C307.086 341.897 307.628 341.671 308.027 341.27C308.426 340.869 308.65 340.326 308.65 339.76V339.76C308.65 339.194 308.426 338.651 308.027 338.25C307.628 337.849 307.086 337.623 306.52 337.62H302C301.433 337.62 300.888 337.845 300.487 338.247C300.086 338.648 299.86 339.192 299.86 339.76V339.76C299.86 340.328 300.086 340.872 300.487 341.273C300.888 341.675 301.433 341.9 302 341.9V341.9Z" fill="#4E5558"/>
<path d="M294.73 337.86C295.149 337.097 295.783 336.474 296.552 336.067C297.322 335.659 298.194 335.486 299.06 335.569C299.927 335.651 300.751 335.986 301.43 336.531C302.109 337.076 302.613 337.807 302.881 338.636C303.149 339.464 303.169 340.353 302.938 341.192C302.707 342.031 302.236 342.785 301.582 343.359C300.928 343.934 300.12 344.305 299.257 344.426C298.395 344.547 297.517 344.412 296.73 344.04C295.648 343.482 294.831 342.52 294.456 341.362C294.082 340.204 294.18 338.946 294.73 337.86Z" fill="#B0BEC5"/>
<path d="M295.949 344.039L297.188 344.623L301.495 335.487L300.256 334.903L295.949 344.039Z" fill="#4E5558"/>
</svg>
